<?xml version="1.0" standalone="no"?>
<svg xmlns:xlink="http://www.w3.org/1999/xlink" id="wave" style="transform:rotate(0deg); transition: 0.3s" viewBox="0 0 1440 110" version="1.1" xmlns="http://www.w3.org/2000/svg"><defs><linearGradient id="sw-gradient-0" x1="0" x2="0" y1="1" y2="0"><stop stop-color="rgba(243, 106, 62, 1)" offset="0%"/><stop stop-color="rgba(255, 179, 11, 1)" offset="100%"/></linearGradient></defs><path style="transform:translate(0, 0px); opacity:1" fill="url(#sw-gradient-0)" d="M0,88L10,89.8C20,92,40,95,60,89.8C80,84,100,70,120,64.2C140,59,160,62,180,69.7C200,77,220,88,240,93.5C260,99,280,99,300,91.7C320,84,340,70,360,55C380,40,400,26,420,25.7C440,26,460,40,480,55C500,70,520,84,540,88C560,92,580,84,600,73.3C620,62,640,48,660,47.7C680,48,700,62,720,67.8C740,73,760,70,780,60.5C800,51,820,37,840,31.2C860,26,880,29,900,27.5C920,26,940,18,960,23.8C980,29,1000,48,1020,51.3C1040,55,1060,44,1080,42.2C1100,40,1120,48,1140,45.8C1160,44,1180,33,1200,29.3C1220,26,1240,29,1260,38.5C1280,48,1300,62,1320,60.5C1340,59,1360,40,1380,27.5C1400,15,1420,7,1430,3.7L1440,0L1440,110L1430,110C1420,110,1400,110,1380,110C1360,110,1340,110,1320,110C1300,110,1280,110,1260,110C1240,110,1220,110,1200,110C1180,110,1160,110,1140,110C1120,110,1100,110,1080,110C1060,110,1040,110,1020,110C1000,110,980,110,960,110C940,110,920,110,900,110C880,110,860,110,840,110C820,110,800,110,780,110C760,110,740,110,720,110C700,110,680,110,660,110C640,110,620,110,600,110C580,110,560,110,540,110C520,110,500,110,480,110C460,110,440,110,420,110C400,110,380,110,360,110C340,110,320,110,300,110C280,110,260,110,240,110C220,110,200,110,180,110C160,110,140,110,120,110C100,110,80,110,60,110C40,110,20,110,10,110L0,110Z"/><defs><linearGradient id="sw-gradient-1" x1="0" x2="0" y1="1" y2="0"><stop stop-color="rgba(243, 106, 62, 1)" offset="0%"/><stop stop-color="rgba(255, 179, 11, 1)" offset="100%"/></linearGradient></defs><path style="transform:translate(0, 50px); opacity:0.9" fill="url(#sw-gradient-1)" d="M0,0L10,11C20,22,40,44,60,45.8C80,48,100,29,120,18.3C140,7,160,4,180,11C200,18,220,37,240,47.7C260,59,280,62,300,55C320,48,340,29,360,33C380,37,400,62,420,64.2C440,66,460,44,480,42.2C500,40,520,59,540,62.3C560,66,580,55,600,45.8C620,37,640,29,660,22C680,15,700,7,720,18.3C740,29,760,59,780,73.3C800,88,820,88,840,77C860,66,880,44,900,31.2C920,18,940,15,960,27.5C980,40,1000,70,1020,80.7C1040,92,1060,84,1080,71.5C1100,59,1120,40,1140,38.5C1160,37,1180,51,1200,49.5C1220,48,1240,29,1260,34.8C1280,40,1300,70,1320,82.5C1340,95,1360,92,1380,80.7C1400,70,1420,51,1430,42.2L1440,33L1440,110L1430,110C1420,110,1400,110,1380,110C1360,110,1340,110,1320,110C1300,110,1280,110,1260,110C1240,110,1220,110,1200,110C1180,110,1160,110,1140,110C1120,110,1100,110,1080,110C1060,110,1040,110,1020,110C1000,110,980,110,960,110C940,110,920,110,900,110C880,110,860,110,840,110C820,110,800,110,780,110C760,110,740,110,720,110C700,110,680,110,660,110C640,110,620,110,600,110C580,110,560,110,540,110C520,110,500,110,480,110C460,110,440,110,420,110C400,110,380,110,360,110C340,110,320,110,300,110C280,110,260,110,240,110C220,110,200,110,180,110C160,110,140,110,120,110C100,110,80,110,60,110C40,110,20,110,10,110L0,110Z"/></svg>